<svg xmlns="http://www.w3.org/2000/svg" width="20" height="18.333" viewBox="0 0 20 18.333">
  <path id="folder" d="M15.833,2.667h-5.44a.849.849,0,0,1-.373-.083l-2.63-1.32A2.512,2.512,0,0,0,6.273,1H4.167A4.172,4.172,0,0,0,0,5.167v10a4.172,4.172,0,0,0,4.167,4.167H15.833A4.172,4.172,0,0,0,20,15.167V6.833a4.172,4.172,0,0,0-4.167-4.167Zm-11.667,0H6.273a.849.849,0,0,1,.373.083l2.63,1.316a2.512,2.512,0,0,0,1.118.267h5.44A2.5,2.5,0,0,1,18.149,5.9L1.667,5.995V5.167a2.5,2.5,0,0,1,2.5-2.5Zm11.667,15H4.167a2.5,2.5,0,0,1-2.5-2.5v-7.5l16.667-.094v7.6A2.5,2.5,0,0,1,15.833,17.667Z" transform="translate(0 -1)"/>
</svg>
