<svg xmlns="http://www.w3.org/2000/svg" width="20.771" height="20" viewBox="0 0 20.771 20">
  <g id="channel" transform="translate(0 -9.496)">
    <g id="Group_6185" data-name="Group 6185" transform="translate(0 9.496)">
      <path id="Path_3473" data-name="Path 3473" d="M18.952,21.672l-.027-.015c.021-.241.032-.486.032-.732a8.582,8.582,0,0,0-4.936-7.761c0-.01,0-.021,0-.031a3.636,3.636,0,1,0-7.273,0c0,.01,0,.021,0,.031a8.582,8.582,0,0,0-4.936,7.761c0,.247.011.491.032.732l-.027.015a3.636,3.636,0,1,0,3.637,6.3l.029-.018a8.553,8.553,0,0,0,9.8,0l.029.018a3.636,3.636,0,1,0,3.636-6.3ZM10.385,11.054a2.078,2.078,0,1,1-2.078,2.078A2.08,2.08,0,0,1,10.385,11.054Zm-4.741,14.3a2.08,2.08,0,0,1-2,1.541,2.079,2.079,0,0,1-.007-4.157h0a2.087,2.087,0,0,1,1.8,1.04A2.064,2.064,0,0,1,5.644,25.359Zm8.476,1.5a7,7,0,0,1-7.471,0,3.637,3.637,0,0,0-3.016-5.674h0c-.085,0-.17,0-.256.009,0-.089-.006-.179-.006-.268a7.02,7.02,0,0,1,3.742-6.2,3.637,3.637,0,0,0,6.542,0,7.019,7.019,0,0,1,3.742,6.2c0,.09,0,.179-.006.268-.085-.006-.17-.009-.255-.009h0a3.638,3.638,0,0,0-3.017,5.674Zm4.813-1a2.078,2.078,0,1,1-1.8-3.118h0a2.079,2.079,0,0,1,1.8,3.118Z" transform="translate(0 -9.496)"/>
    </g>
  </g>
</svg>
