<?xml version="1.0" encoding="UTF-8"?><svg id="Layer_2" xmlns="http://www.w3.org/2000/svg" viewBox="0 0 24.96 24.61" width="20" height="20"><defs><style>.cls-1{stroke-width:0px;}.cls-2{fill:none;stroke:#000;stroke-linecap:round;stroke-linejoin:round;stroke-width:1.5px;}</style></defs><g id="Layer_1-2"><path class="cls-2" d="m1.27,11.77c1.6,3.17-.52,6.06-.52,6.06,2.75,1.87,5.49-.4,5.49-.4h0,.01c.3.13.61.24.93.33h0c.78.24,1.6.36,2.46.36,4.8,0,8.69-3.89,8.69-8.69,0-1.07-.19-2.09-.54-3.03h-.01C16.56,3.1,13.37.75,9.64.75,4.85.75.96,4.63.96,9.43c0,.81.11,1.6.32,2.34.12.44.27.86.45,1.26,0,0,.01,0,.01.02"/><path class="cls-2" d="m23.23,18.33c.08-.41.23-.83.45-1.26l-.45,1.26s0,.01,0,.02c-.1.42-.14.82-.14,1.21,0,2.05,1.13,3.57,1.13,3.57-2.75,1.86-5.5-.4-5.5-.4-1.04.45-2.19.69-3.39.69-2.34,0-4.46-.92-6.01-2.42-.22-.22-.43-.44-.63-.68.2.24.41.46.63.68,1.55,1.5,3.67,2.42,6.01,2.42,1.2,0,2.35-.24,3.39-.69,0,0,2.75,2.26,5.5.4,0,0-1.13-1.52-1.13-3.57,0-.39.04-.79.14-1.21,0-.01,0-.02,0-.02.18-.4.33-.82.45-1.26.21-.74.32-1.53.32-2.34,0-2.89-1.41-5.44-3.58-7.02"/><circle class="cls-1" cx="5.54" cy="9.43" r="1.09"/><circle class="cls-1" cx="9.64" cy="9.43" r="1.09"/><circle class="cls-1" cx="13.74" cy="9.43" r="1.09"/></g></svg>