<svg xmlns="http://www.w3.org/2000/svg" width="23.508" height="23.508" viewBox="0 0 23.508 23.508">
  <g id="_001-login-1" data-name="001-login-1" transform="translate(0)">
    <g id="Group_3973" data-name="Group 3973" transform="translate(0)">
      <g id="Group_3972" data-name="Group 3972">
        <path id="Path_2089" data-name="Path 2089" d="M6.038,21.672H2.787a.933.933,0,0,1-.735-.349.96.96,0,0,1-.194-.8,10.146,10.146,0,0,1,9.662-8.034c.078,0,.156,0,.234,0s.158,0,.236,0a10.058,10.058,0,0,1,3.317.639.918.918,0,0,0,.646-1.719q-.228-.086-.459-.161a6.244,6.244,0,1,0-7.475,0,11.941,11.941,0,0,0-7.959,8.9,2.79,2.79,0,0,0,2.727,3.364H6.038a.918.918,0,1,0,0-1.837ZM7.347,6.244a4.408,4.408,0,1,1,4.622,4.4l-.215,0-.215,0A4.413,4.413,0,0,1,7.347,6.244Z" transform="translate(0)" fill="#000000"/>
        <path id="Path_2090" data-name="Path 2090" d="M162.1,314.451A2.474,2.474,0,0,0,159.843,313h-2.87a2.431,2.431,0,0,0-2.3,1.552c-.048.126-.107.284-.169.468H148.5a.918.918,0,0,0-.659.279l-1.577,1.625a.918.918,0,0,0,0,1.283l1.607,1.635a.918.918,0,0,0,.655.275h2.984a.918.918,0,0,0,0-1.837h-2.6l-.708-.721.682-.7H155.2a.918.918,0,0,0,.892-.7,7.587,7.587,0,0,1,.3-.946.6.6,0,0,1,.585-.375h2.866a.627.627,0,0,1,.583.364,5.93,5.93,0,0,1,.543,2.341,6.106,6.106,0,0,1-.539,2.383.627.627,0,0,1-.577.376h-2.9a.654.654,0,0,1-.592-.407,6.105,6.105,0,0,1-.285-.909.918.918,0,1,0-1.786.427,7.9,7.9,0,0,0,.373,1.182,2.477,2.477,0,0,0,2.288,1.543h2.9a2.462,2.462,0,0,0,2.258-1.478,7.949,7.949,0,0,0,.692-3.121A7.775,7.775,0,0,0,162.1,314.451Z" transform="translate(-139.296 -298.629)" fill="#000000"/>
        <ellipse id="Ellipse_309" data-name="Ellipse 309" cx="1" cy="0.5" rx="1" ry="0.5" transform="translate(19 18.508)" fill="#000000"/>
      </g>
    </g>
  </g>
</svg>
