<svg xmlns="http://www.w3.org/2000/svg" width="32" height="32" viewBox="0 0 32 32">
  <g id="Group_6145" data-name="Group 6145" transform="translate(-23 -108)">
    <g id="Ellipse_7" data-name="Ellipse 7" transform="translate(23 108)" fill="#fff" stroke="#ecf0f2" stroke-width="1">
      <circle cx="16" cy="16" r="16" stroke="none"/>
      <circle cx="16" cy="16" r="15.5" fill="none"/>
    </g>
    <path id="money-bill-wave" d="M9.334,13.111A3.111,3.111,0,1,1,12.445,10,3.114,3.114,0,0,1,9.334,13.111Zm0-4.667A1.556,1.556,0,1,0,10.889,10,1.557,1.557,0,0,0,9.334,8.444ZM3.889,6.111a.778.778,0,1,0,.778.778A.778.778,0,0,0,3.889,6.111ZM14,8.444a.778.778,0,1,0,.778-.778A.778.778,0,0,0,14,8.444ZM3.889,10.778a.778.778,0,1,0,.778.778A.778.778,0,0,0,3.889,10.778ZM14,13.111a.778.778,0,1,0,.778-.778A.778.778,0,0,0,14,13.111ZM13.222,17a13.074,13.074,0,0,1-3.51-.611,11.688,11.688,0,0,0-3.1-.556,9.427,9.427,0,0,0-2.659.271,3.058,3.058,0,0,1-2.707-.5A3.093,3.093,0,0,1,0,13.111V7.24A3.92,3.92,0,0,1,2.516,3.6,8.289,8.289,0,0,1,5.446,3a13.079,13.079,0,0,1,3.51.611,11.688,11.688,0,0,0,3.1.556A9.43,9.43,0,0,0,14.716,3.9a3.058,3.058,0,0,1,2.707.5,3.093,3.093,0,0,1,1.244,2.493V12.76h0A3.921,3.921,0,0,1,16.152,16.4a8.285,8.285,0,0,1-2.931.6Zm-6.61-2.722a13.079,13.079,0,0,1,3.51.611,11.688,11.688,0,0,0,3.1.556,6.764,6.764,0,0,0,2.377-.5,2.325,2.325,0,0,0,1.514-2.187V6.889a1.55,1.55,0,0,0-.625-1.249,1.516,1.516,0,0,0-1.342-.25,10.825,10.825,0,0,1-3.091.332,13.079,13.079,0,0,1-3.51-.611,11.688,11.688,0,0,0-3.1-.556,6.761,6.761,0,0,0-2.377.5A2.325,2.325,0,0,0,1.554,7.24v5.871a1.55,1.55,0,0,0,.625,1.249,1.513,1.513,0,0,0,1.341.249,10.828,10.828,0,0,1,3.091-.332Z" transform="translate(29.999 114)"/>
  </g>
</svg>
