<svg id="shopping-cart_copy" data-name="shopping-cart copy" xmlns="http://www.w3.org/2000/svg" width="20" height="20.503" viewBox="0 0 20 20.503">
  <path id="Path_2" data-name="Path 2" d="M19.4,3.483a2.557,2.557,0,0,0-1.967-.92H3.624l-.036-.3A2.563,2.563,0,0,0,1.044,0H.854a.854.854,0,0,0,0,1.709h.19a.854.854,0,0,1,.848.754l1.176,10A4.271,4.271,0,0,0,7.31,16.232h8.921a.854.854,0,1,0,0-1.709H7.31A2.563,2.563,0,0,1,4.9,12.814H15.084a4.272,4.272,0,0,0,4.2-3.514l.671-3.719a2.558,2.558,0,0,0-.555-2.1ZM18.282,5.278,17.61,9a2.563,2.563,0,0,1-2.526,2.108H4.629l-.8-6.834H17.436a.854.854,0,0,1,.846,1.006Z" transform="translate(0)"/>
  <circle id="Ellipse_1" data-name="Ellipse 1" cx="1.709" cy="1.709" r="1.709" transform="translate(4.271 17.086)"/>
  <circle id="Ellipse_2" data-name="Ellipse 2" cx="1.709" cy="1.709" r="1.709" transform="translate(12.814 17.086)"/>
</svg>
