<svg xmlns="http://www.w3.org/2000/svg" width="15" height="18" viewBox="0 0 15 18">
  <path id="document" d="M13.25,10.5a.75.75,0,0,1-.75.75h-6a.75.75,0,1,1,0-1.5h6A.75.75,0,0,1,13.25,10.5Zm-3,2.25H6.5a.75.75,0,1,0,0,1.5h3.75a.75.75,0,1,0,0-1.5ZM17,7.864V14.25A3.755,3.755,0,0,1,13.25,18H5.75A3.754,3.754,0,0,1,2,14.25V3.75A3.754,3.754,0,0,1,5.75,0H9.136a5.218,5.218,0,0,1,3.712,1.537l2.613,2.614A5.213,5.213,0,0,1,17,7.864ZM11.788,2.6A3.757,3.757,0,0,0,11,2.013V5.25a.75.75,0,0,0,.75.75h3.237a3.737,3.737,0,0,0-.586-.787ZM15.5,7.864c0-.124-.024-.242-.035-.364H11.75A2.25,2.25,0,0,1,9.5,5.25V1.535c-.122-.011-.241-.035-.364-.035H5.75A2.25,2.25,0,0,0,3.5,3.75v10.5A2.25,2.25,0,0,0,5.75,16.5h7.5a2.25,2.25,0,0,0,2.25-2.25Z" transform="translate(-2 0)"/>
</svg>
