<svg xmlns="http://www.w3.org/2000/svg" width="21" height="21.001" viewBox="0 0 21 21.001">
  <path id="file-edit" d="M16.461,8.75a.875.875,0,0,0,.848-1.092,6.129,6.129,0,0,0-1.6-2.815L12.656,1.794A6.085,6.085,0,0,0,8.325,0H4.374A4.38,4.38,0,0,0,0,4.375v12.25A4.38,4.38,0,0,0,4.375,21H7a.875.875,0,0,0,0-1.75H4.375A2.628,2.628,0,0,1,1.75,16.625V4.375A2.628,2.628,0,0,1,4.375,1.75H8.326c.143,0,.284.007.424.02V6.125A2.628,2.628,0,0,0,11.375,8.75ZM10.5,6.125v-3.8a4.407,4.407,0,0,1,.919.705l3.049,3.049a4.413,4.413,0,0,1,.7.919h-3.8A.876.876,0,0,1,10.5,6.125Zm9.732,4.269a2.687,2.687,0,0,0-3.713,0l-5.869,5.869a3.479,3.479,0,0,0-1.026,2.475v1.388A.875.875,0,0,0,10.5,21h1.388a3.477,3.477,0,0,0,2.475-1.026l5.869-5.869a2.626,2.626,0,0,0,0-3.713Zm-1.238,2.475-5.87,5.869a1.735,1.735,0,0,1-1.237.513h-.513v-.513a1.738,1.738,0,0,1,.513-1.237l5.87-5.869a.9.9,0,0,1,1.237,0,.875.875,0,0,1,0,1.237Z"/>
</svg>
