<svg xmlns="http://www.w3.org/2000/svg" width="40.5" height="45.085" viewBox="0 0 40.5 45.085">
  <g id="_002-order" data-name="002-order" transform="translate(-24.004 0)">
    <g id="Group_6334" data-name="Group 6334" transform="translate(27.06 25.216)">
      <g id="Group_6333" data-name="Group 6333">
        <path id="Path_3507" data-name="Path 3507" d="M56.768,264a.764.764,0,0,0-.764.764v3.056a.764.764,0,1,0,1.528,0v-3.056A.764.764,0,0,0,56.768,264Z" transform="translate(-56.004 -264.002)" fill="#fff"/>
      </g>
    </g>
    <g id="Group_6336" data-name="Group 6336" transform="translate(30.117 26.744)">
      <g id="Group_6335" data-name="Group 6335" transform="translate(0)">
        <path id="Path_3508" data-name="Path 3508" d="M88.768,280a.764.764,0,0,0-.764.764v3.056a.764.764,0,1,0,1.528,0v-3.056A.764.764,0,0,0,88.768,280Z" transform="translate(-88.004 -280.002)" fill="#fff"/>
      </g>
    </g>
    <g id="Group_6338" data-name="Group 6338" transform="translate(49.221 29.801)">
      <g id="Group_6337" data-name="Group 6337">
        <path id="Path_3509" data-name="Path 3509" d="M297.546,313.047a.764.764,0,0,0-.856,1.265,4.585,4.585,0,1,1-2.563-.782.764.764,0,0,0,0-1.528,6.113,6.113,0,1,0,3.419,1.045Z" transform="translate(-288.016 -312.002)" fill="#fff"/>
      </g>
    </g>
    <g id="Group_6340" data-name="Group 6340" transform="translate(24.004 0)">
      <g id="Group_6339" data-name="Group 6339" transform="translate(0 0)">
        <path id="Path_3510" data-name="Path 3510" d="M64.142,33.376a9.166,9.166,0,0,0-4.989-5.791V10.7a.764.764,0,0,0-.375-.658L41.968.107a.764.764,0,0,0-.778,0L24.379,10.04c-.016.009-.028.023-.043.034s-.03.023-.045.035a.753.753,0,0,0-.169.186c0,.005-.009.008-.012.014v.005a.764.764,0,0,0-.086.25.676.676,0,0,1-.009.067A.668.668,0,0,0,24,10.7V30.565a.764.764,0,0,0,.375.658l16.81,9.933a.628.628,0,0,0,.062.026.6.6,0,0,0,.064.028.682.682,0,0,0,.526,0,.615.615,0,0,0,.065-.028c.02-.009.041-.015.061-.026l4.563-2.7a9.166,9.166,0,0,0,17.612-5.084ZM41.579,1.652,45.552,4,39.661,7.481A.765.765,0,1,0,40.439,8.8l6.616-3.907,3.973,2.348L35.72,16.282l-3.973-2.348,6.4-3.782a.765.765,0,1,0-.778-1.317l-7.125,4.211L26.27,10.7ZM34.956,17.606v5.1l-3.947-2.333v-5.1ZM46.465,33.552a9.31,9.31,0,0,0-.251,3.319L42.343,39.16V36.678a.764.764,0,1,0-1.528,0V39.16l-15.282-9.03V12.037L29.48,14.37v6.441a.764.764,0,0,0,.375.659l5.476,3.236a.764.764,0,0,0,1.153-.658V18.509l4.33,2.559V33.621a.764.764,0,1,0,1.528,0V21.068l13.849-8.184a.764.764,0,0,0-.778-1.316L41.579,19.744,37.223,17.17,52.531,8.124l5.094,3.01V27.05A9.133,9.133,0,0,0,46.465,33.552Zm8.867,10a7.641,7.641,0,1,1,7.641-7.641A7.641,7.641,0,0,1,55.333,43.555Z" transform="translate(-24.004 0)" fill="#fff"/>
      </g>
    </g>
    <g id="Group_6342" data-name="Group 6342" transform="translate(52.285 33.631)">
      <g id="Group_6341" data-name="Group 6341">
        <path id="Path_3511" data-name="Path 3511" d="M325.963,352.314a.764.764,0,0,0-1.062,0l-2.9,2.9-.606-.606a.764.764,0,0,0-1.08,1.08l1.146,1.146a.764.764,0,0,0,1.08,0l3.439-3.439A.764.764,0,0,0,325.963,352.314Z" transform="translate(-320.102 -352.1)" fill="#fff"/>
      </g>
    </g>
  </g>
</svg>
