<svg xmlns="http://www.w3.org/2000/svg" width="15" height="15" viewBox="0 0 15 15">
  <g id="download" transform="translate(-0.85 15) rotate(-90)">
    <g id="Group_3920" data-name="Group 3920" transform="translate(0 0.85)">
      <g id="Group_3919" data-name="Group 3919">
        <path id="Path_2064" data-name="Path 2064" d="M7.482,14.6H1.871a.624.624,0,0,1-.624-.625V2.725A.624.624,0,0,1,1.871,2.1H7.482a.625.625,0,0,0,0-1.25H1.871A1.875,1.875,0,0,0,0,2.725v11.25A1.875,1.875,0,0,0,1.871,15.85H7.482a.625.625,0,0,0,0-1.25Z" transform="translate(0 -0.85)" fill="#4d2f82"/>
      </g>
    </g>
    <g id="Group_3922" data-name="Group 3922" transform="translate(15 12.715) rotate(180)">
      <g id="Group_3921" data-name="Group 3921">
        <path id="Path_2065" data-name="Path 2065" d="M9.84,3.921,6.049.18a.623.623,0,0,0-.875.888L7.883,3.741H.624a.624.624,0,1,0,0,1.247h7.26L5.174,7.662a.623.623,0,1,0,.875.888L9.84,4.808a.623.623,0,0,0,0-.888Z" fill="#4d2f82"/>
      </g>
    </g>
  </g>
</svg>
