<svg width="21" height="21" viewBox="0 0 21 21" fill="none" xmlns="http://www.w3.org/2000/svg"><path d="M18.375 0H2.625C1.17687 0 0 1.17687 0 2.625V18.375C0 19.8223 1.17687 21 2.625 21H18.375C19.8223 21 21 19.8223 21 18.375V2.625C21 1.17687 19.8223 0 18.375 0Z" fill="#3B5999"></path><path d="M14.4375 10.5V7.875C14.4375 7.1505 15.0255 7.21875 15.75 7.21875H17.0625V3.9375H14.4375C12.2622 3.9375 10.5 5.69975 10.5 7.875V10.5H7.875V13.7812H10.5V21H14.4375V13.7812H16.4062L17.7188 10.5H14.4375Z" fill="white"></path></svg>