<svg xmlns="http://www.w3.org/2000/svg" width="19.425" height="18.007" viewBox="0 0 19.425 18.007">
  <g id="Group_3959" data-name="Group 3959" transform="translate(-485.495 -433.5)">
    <path id="Path_41" data-name="Path 41" d="M432.164,191.542a.646.646,0,0,1,.553.425c.777,1.534,1.561,3.064,2.337,4.6a.35.35,0,0,0,.312.217c1.752.238,3.505.491,5.257.735a.682.682,0,0,1,.626.45.641.641,0,0,1-.224.7q-1.932,1.818-3.854,3.641a.239.239,0,0,0-.094.251c.31,1.73.61,3.459.918,5.187a.615.615,0,0,1-.244.66.663.663,0,0,1-.74.032c-1.585-.81-3.172-1.614-4.756-2.427a.353.353,0,0,0-.369.005c-1.565.8-3.134,1.6-4.7,2.4a.783.783,0,0,1-.581.094.634.634,0,0,1-.459-.731c.307-1.735.61-3.472.922-5.207a.257.257,0,0,0-.092-.269q-1.923-1.81-3.839-3.63a.884.884,0,0,1-.241-.351.593.593,0,0,1,.479-.772c.529-.094,1.064-.16,1.6-.235,1.167-.165,2.329-.352,3.5-.48a.876.876,0,0,0,.784-.575c.713-1.449,1.46-2.881,2.188-4.322A.7.7,0,0,1,432.164,191.542Z" transform="translate(63.134 242.458)" fill="#f7c537" stroke="#83188a" stroke-width="1"/>
    <path id="Path_2080" data-name="Path 2080" d="M494.2,445.1l2.025,2.444L499.16,444" transform="translate(-1.119 -2.916)" fill="none" stroke="#83188a" stroke-linecap="round" stroke-linejoin="round" stroke-width="1.5"/>
  </g>
</svg>
