<svg width="21" height="21" viewBox="0 0 21 21" fill="none" xmlns="http://www.w3.org/2000/svg"><path d="M10.4753 15.1591C8.3148 15.1591 6.54707 13.7153 6.0233 11.7466L1.63672 16.1435C3.46992 19.031 6.74348 20.9997 10.4753 20.9997C12.505 20.9997 14.4036 20.4091 16.0404 19.3591L11.6538 14.9622C11.261 15.0935 10.8682 15.1591 10.4753 15.1591Z" fill="#34A853"></path><path d="M20.9509 9.05625C20.8855 8.72813 20.6236 8.53125 20.2962 8.53125H10.4755C10.0827 8.53125 9.8208 8.79375 9.8208 9.1875V12.4688C9.8208 12.8625 10.0827 13.125 10.4755 13.125H13.9455C13.3563 14.0438 12.5051 14.6344 11.654 14.9625L16.0406 19.3594C18.9868 17.5219 20.9509 14.2406 20.9509 10.5C20.9509 10.3031 20.9509 10.1719 20.9509 10.0406C21.0164 9.77813 21.0164 9.45 20.9509 9.05625Z" fill="#4285F4"></path><path d="M5.82695 10.5C5.82695 10.1062 5.89242 9.7125 5.95789 9.31875L1.63678 4.92188C0.589242 6.5625 0 8.46563 0 10.5C0 12.5344 0.589242 14.4375 1.63678 16.0781L6.02336 11.6812C5.89242 11.2875 5.82695 10.8938 5.82695 10.5Z" fill="#FBBC05"></path><path d="M18.6593 3.9375C17.9391 3.01875 17.0225 2.23125 16.0404 1.575C14.4036 0.590625 12.505 0 10.4753 0C6.74348 0 3.46992 1.96875 1.63672 4.92188L6.0233 9.31875C6.54707 7.35 8.38027 5.90625 10.4753 5.90625C10.8682 5.90625 11.261 5.97188 11.6538 6.10313C12.2431 6.3 12.7668 6.62813 13.3561 7.0875C13.5525 7.28438 13.8144 7.28438 14.0763 7.15313L18.4629 4.9875C18.6593 4.92188 18.7902 4.725 18.7902 4.52813C18.8557 4.33125 18.7902 4.13438 18.6593 3.9375Z" fill="#EA4335"></path></svg>