<svg id="_007-help-1" data-name="007-help-1" xmlns="http://www.w3.org/2000/svg" width="26" height="26" viewBox="0 0 26 26">
  <path id="Path_3536" data-name="Path 3536" d="M26,17.6a8.424,8.424,0,0,0-6.154-8.1A9.928,9.928,0,1,0,1.377,14.974L.036,19.819l4.845-1.34A9.891,9.891,0,0,0,9.5,19.845a8.407,8.407,0,0,0,12.375,4.986l4.091,1.132-1.132-4.091A8.374,8.374,0,0,0,26,17.6ZM5.122,16.832l-2.9.8.8-2.9-.183-.286a8.4,8.4,0,1,1,2.567,2.567Zm18.657,6.947-2.152-.6-.287.187a6.883,6.883,0,0,1-10.267-3.581,9.947,9.947,0,0,0,8.717-8.717A6.884,6.884,0,0,1,23.37,21.339l-.187.287Zm0,0" fill="#be1f93"/>
  <path id="Path_3537" data-name="Path 3537" d="M180.5,271h1.506v1.506H180.5Zm0,0" transform="translate(-171.327 -257.229)" fill="#be1f93"/>
  <path id="Path_3538" data-name="Path 3538" d="M140.018,93.012a1.491,1.491,0,0,1-.49,1.112l-1.769,1.619v1.838h1.506V96.406l1.28-1.171a3.012,3.012,0,1,0-5.045-2.223h1.506a1.506,1.506,0,1,1,3.012,0Zm0,0" transform="translate(-128.595 -85.408)" fill="#be1f93"/>
</svg>
