<svg xmlns="http://www.w3.org/2000/svg" width="15" height="15" viewBox="0 0 15 15">
  <g id="settings-sliders" transform="translate(0 0)">
    <path id="Path_3513" data-name="Path 3513" d="M.625,2.969h1.71a2.33,2.33,0,0,0,4.5,0h7.543a.625.625,0,0,0,0-1.25H6.832a2.33,2.33,0,0,0-4.5,0H.625a.625.625,0,0,0,0,1.25ZM4.583,1.25A1.094,1.094,0,1,1,3.489,2.344,1.094,1.094,0,0,1,4.583,1.25Z" transform="translate(0 0)" fill="#fff"/>
    <path id="Path_3514" data-name="Path 3514" d="M14.375,9.968h-1.71a2.329,2.329,0,0,0-4.5,0H.625a.625.625,0,0,0,0,1.25H8.169a2.329,2.329,0,0,0,4.5,0h1.71a.625.625,0,0,0,0-1.25Zm-3.958,1.719a1.094,1.094,0,1,1,1.094-1.094,1.094,1.094,0,0,1-1.094,1.094Z" transform="translate(0 -3.093)" fill="#fff"/>
    <path id="Path_3515" data-name="Path 3515" d="M14.375,18.219H6.832a2.33,2.33,0,0,0-4.5,0H.625a.625.625,0,0,0,0,1.25h1.71a2.33,2.33,0,0,0,4.5,0h7.543a.625.625,0,0,0,0-1.25ZM4.583,19.937a1.094,1.094,0,1,1,1.094-1.094,1.094,1.094,0,0,1-1.094,1.094Z" transform="translate(0 -6.188)" fill="#fff"/>
  </g>
</svg>
