<svg id="edit" xmlns="http://www.w3.org/2000/svg" width="15" height="15" viewBox="0 0 15 15">
  <path id="Path_3456" data-name="Path 3456" d="M13.535.6l-7.62,7.62A3.1,3.1,0,0,0,5,10.427v.839a.625.625,0,0,0,.625.625h.839a3.1,3.1,0,0,0,2.209-.915l7.62-7.62a1.953,1.953,0,0,0,0-2.759,2,2,0,0,0-2.759,0ZM15.41,2.473l-7.62,7.62a1.888,1.888,0,0,1-1.326.549H6.25v-.214A1.887,1.887,0,0,1,6.8,9.1l7.62-7.62a.718.718,0,0,1,.991,0,.7.7,0,0,1,0,.991Z" transform="translate(-1.875 -0.017)"/>
  <path id="Path_3457" data-name="Path 3457" d="M14.375,5.612a.625.625,0,0,0-.625.625V9.375h-2.5A1.875,1.875,0,0,0,9.375,11.25v2.5H3.125A1.875,1.875,0,0,1,1.25,11.875V3.125A1.875,1.875,0,0,1,3.125,1.25H8.776a.625.625,0,0,0,0-1.25H3.125A3.129,3.129,0,0,0,0,3.125v8.75A3.129,3.129,0,0,0,3.125,15h7.089a3.105,3.105,0,0,0,2.21-.915l1.66-1.661A3.1,3.1,0,0,0,15,10.214V6.237A.625.625,0,0,0,14.375,5.612ZM11.541,13.2a1.859,1.859,0,0,1-.916.5V11.25a.625.625,0,0,1,.625-.625H13.7a1.885,1.885,0,0,1-.5.915Z"/>
</svg>
