<svg xmlns="http://www.w3.org/2000/svg" width="14.64" height="15.5" viewBox="0 0 14.64 15.5">
  <g id="_002-share" data-name="002-share" transform="translate(-13.55 0.25)">
    <path id="Path_3458" data-name="Path 3458" d="M25.256,9.637a2.684,2.684,0,0,0-2.124,1.047l-4.121-2.3a2.691,2.691,0,0,0,.15-.885,2.632,2.632,0,0,0-.153-.888l4.118-2.3a2.679,2.679,0,1,0-.554-1.629,2.618,2.618,0,0,0,.153.888l-4.114,2.3a2.679,2.679,0,1,0,.006,3.255l4.118,2.3a2.68,2.68,0,1,0,2.523-1.788Zm0-8.793a1.841,1.841,0,1,1-1.841,1.841A1.842,1.842,0,0,1,25.256.844ZM16.485,9.338A1.841,1.841,0,1,1,18.326,7.5,1.842,1.842,0,0,1,16.485,9.338Zm8.771,4.818A1.841,1.841,0,1,1,27.1,12.315,1.842,1.842,0,0,1,25.256,14.156Z" stroke="#000" stroke-width="0.5"/>
  </g>
</svg>
