<svg id="logo" xmlns="http://www.w3.org/2000/svg" xmlns:xlink="http://www.w3.org/1999/xlink" width="103.212" height="32.987" viewBox="0 0 103.212 32.987">
  <defs>
    <linearGradient id="linear-gradient" y1="0.5" x2="1" y2="0.5" gradientUnits="objectBoundingBox">
      <stop offset="0" stop-color="#b92790"/>
      <stop offset="0.08" stop-color="#a6278d"/>
      <stop offset="0.25" stop-color="#842989"/>
      <stop offset="0.43" stop-color="#6a2b85"/>
      <stop offset="0.62" stop-color="#572c83"/>
      <stop offset="0.8" stop-color="#4b2c81"/>
      <stop offset="1" stop-color="#482d81"/>
    </linearGradient>
  </defs>
  <path id="Path_3423" data-name="Path 3423" d="M0,18.467v4.321a3.916,3.916,0,0,0,1.943,3.37h0L12.8,32.431h0a3.873,3.873,0,0,0,3.967,0h0l10.858-6.274h0a3.9,3.9,0,0,0,1.943-3.37V10.281h0V10.19A3.877,3.877,0,0,0,27.645,6.84h0l-.03-.02c-.04-.02-.071-.04-.111-.061L16.747.516h0a3.877,3.877,0,0,0-3.865,0h0L2.064,6.749c-.04.02-.071.04-.111.061l-.03.02h0A3.9,3.9,0,0,0,0,10.18v.091H0v8.186" fill="#fff"/>
  <path id="Path_3424" data-name="Path 3424" d="M29.6,10.18A3.877,3.877,0,0,0,27.675,6.83h0l-.03-.02c-.04-.02-.071-.04-.111-.061L16.747.516h0a3.877,3.877,0,0,0-3.865,0h0L2.064,6.749c-.04.02-.071.04-.111.061l-.03.02h0A3.9,3.9,0,0,0,0,10.18v.091H0v8.186A39.121,39.121,0,0,1,4.007,17.05c.648-.192,1.305-.364,1.963-.516.83-.192,1.68-.364,2.53-.506a.3.3,0,0,0,.091-.02h0l-.03-.03a7.321,7.321,0,0,1-.688-.86c-.142-.243-.5-.678-.374-.779.081-.061.223.051.415.152a14.408,14.408,0,0,0,1.609.769q.592.228,1.245.455a37.73,37.73,0,0,1,4.017-.212q.683,0,1.366.03c-.364-.111-.739-.212-1.133-.314a29.291,29.291,0,0,1-7.458-2.7.853.853,0,0,1-.415-.769A5.962,5.962,0,0,1,9.653,7.073,9.118,9.118,0,0,1,14.885,5.5,10.938,10.938,0,0,1,21.26,7.842a2.347,2.347,0,0,1,.678,3.147,2.253,2.253,0,0,1-3.147.6,7.277,7.277,0,0,0-3.916-1.568,4.337,4.337,0,0,0-2.55.769,1.316,1.316,0,0,0-.678.982.488.488,0,0,0,.081.344,1.193,1.193,0,0,0,.465.425,7.538,7.538,0,0,0,2.489.9c.192.04,1.518.324,1.912.425a14.848,14.848,0,0,1,2.732.971,7.6,7.6,0,0,1,1.953,1.245,38.065,38.065,0,0,1,8.287,2.388V10.281h0V10.19Z" fill="url(#linear-gradient)"/>
  <path id="Path_3425" data-name="Path 3425" d="M21.32,15.886a5.6,5.6,0,0,1,1.062,1.265c.374.617.546,1.245.4,1.326-.243.132-.587-.273-1.214-.718A18.647,18.647,0,0,0,16.18,15.37q-.683-.03-1.366-.03a37.589,37.589,0,0,0-4.017.212c1.154.395,2.469.779,4,1.184,4.412,1.154,7.043,2.641,8.055,4.523a1.549,1.549,0,0,1,.061,1.174,6.453,6.453,0,0,1-2.388,3.147A9.66,9.66,0,0,1,15,27.28a12.3,12.3,0,0,1-7.569-2.934A2.269,2.269,0,0,1,7.134,21.2a2.216,2.216,0,0,1,3.187-.344A7.828,7.828,0,0,0,15,22.727a5.645,5.645,0,0,0,2.489-.587,1.759,1.759,0,0,0,.192-.1,3.321,3.321,0,0,0,.435-.334,1.942,1.942,0,0,0,.142-.152,1.443,1.443,0,0,0,.395-.911.664.664,0,0,0-.121-.425c-.04-.132-.212-.293-.557-.506a8.511,8.511,0,0,0-2.58-1.012c-.263-.061-1.407-.293-1.68-.354a14.487,14.487,0,0,1-2.874-.931,7.681,7.681,0,0,1-2.216-1.568,38.339,38.339,0,0,0-8.6,2.449v4.321a3.9,3.9,0,0,0,1.943,3.37h0L12.82,32.259h0a3.873,3.873,0,0,0,3.967,0h0l10.858-6.274h0a3.9,3.9,0,0,0,1.943-3.37V18.295A38.065,38.065,0,0,0,21.3,15.907Z" transform="translate(0 0.182)" fill="#b92790"/>
  <path id="Path_3426" data-name="Path 3426" d="M41.739,23.94a8,8,0,0,1-2.277-.961,2.776,2.776,0,0,1-.789-.7,1.325,1.325,0,0,1-.233-.789.993.993,0,0,1,.233-.668.773.773,0,0,1,.607-.263,2.252,2.252,0,0,1,1.083.465,9.819,9.819,0,0,0,1.842.88,6.958,6.958,0,0,0,2.277.324,4.83,4.83,0,0,0,2.6-.587,1.9,1.9,0,0,0,.931-1.7,1.673,1.673,0,0,0-.344-1.1,2.794,2.794,0,0,0-1.174-.749,18.085,18.085,0,0,0-2.449-.668,9.285,9.285,0,0,1-3.906-1.579,3.315,3.315,0,0,1-1.174-2.692A3.981,3.981,0,0,1,39.7,10.8a5.045,5.045,0,0,1,2.064-1.609A7.21,7.21,0,0,1,44.754,8.6a8.523,8.523,0,0,1,2.337.324,7.06,7.06,0,0,1,1.993.911,2.023,2.023,0,0,1,1.052,1.548.977.977,0,0,1-.243.678.779.779,0,0,1-.587.283,2.261,2.261,0,0,1-1.113-.526,10.018,10.018,0,0,0-1.639-.87,5.269,5.269,0,0,0-1.923-.314,3.833,3.833,0,0,0-2.337.648,2.05,2.05,0,0,0-.88,1.73,1.785,1.785,0,0,0,.324,1.1,2.566,2.566,0,0,0,1.083.739,13.61,13.61,0,0,0,2.186.637,15.733,15.733,0,0,1,3.268,1.022,3.826,3.826,0,0,1,1.659,1.366,3.8,3.8,0,0,1,.5,2.044,3.714,3.714,0,0,1-1.639,3.147,7.187,7.187,0,0,1-4.341,1.194,10.321,10.321,0,0,1-2.712-.344Z" transform="translate(0.457 0.102)" fill="#4d2f82"/>
  <path id="Path_3427" data-name="Path 3427" d="M74.2,8.73a1.257,1.257,0,0,1,.84.314.983.983,0,0,1,.374.779,1.353,1.353,0,0,1-.091.465L70.184,23.3a1.458,1.458,0,0,1-.546.637,1.441,1.441,0,0,1-.789.233,1.367,1.367,0,0,1-.759-.233,1.467,1.467,0,0,1-.546-.637l-4.28-10.878L59.023,23.3a1.3,1.3,0,0,1-.526.637,1.509,1.509,0,0,1-.81.233,1.485,1.485,0,0,1-.779-.233,1.425,1.425,0,0,1-.557-.637l-5.14-12.982a1.288,1.288,0,0,1-.091-.435,1.063,1.063,0,0,1,.415-.84,1.46,1.46,0,0,1,.911-.344,1.066,1.066,0,0,1,1.052.739l4.24,11.434L62.109,9.53a1.361,1.361,0,0,1,.516-.617,1.233,1.233,0,0,1,.7-.212,1.24,1.24,0,0,1,1.2.83L68.9,20.843l4.28-11.374A1.057,1.057,0,0,1,74.2,8.72Z" transform="translate(0.608 0.103)" fill="#4d2f82"/>
  <path id="Path_3428" data-name="Path 3428" d="M75.682,23.412a1.107,1.107,0,0,1-.142-.971L78.89,9.691a1.121,1.121,0,0,1,.567-.8,1.445,1.445,0,0,1,.951-.132,1.259,1.259,0,0,1,.8.445,1,1,0,0,1,.152.921L78.01,22.876a1.169,1.169,0,0,1-.577.84,1.4,1.4,0,0,1-.951.152,1.226,1.226,0,0,1-.8-.455Z" transform="translate(0.897 0.104)" fill="#4d2f82"/>
  <path id="Path_3429" data-name="Path 3429" d="M80.185,4.832a1.563,1.563,0,0,1-.445-1.154,1.493,1.493,0,0,1,.445-1.123,1.58,1.58,0,0,1,1.164-.435,1.6,1.6,0,0,1,1.164.435,1.525,1.525,0,0,1,.445,1.123,1.512,1.512,0,0,1-1.609,1.589A1.6,1.6,0,0,1,80.185,4.832Z" transform="translate(0.948 0.025)" fill="#4d2f82"/>
  <path id="Path_3430" data-name="Path 3430" d="M96.088,22.625l3.248-11.809H102.3V10.2H99.509l.85-3.1H97.879l-.84,3.1H90.118l.587-2.479c.212-.931.445-1.781.688-2.54a11.522,11.522,0,0,1,.81-1.973,3.842,3.842,0,0,1,1.042-1.275,2.207,2.207,0,0,1,1.386-.445,2.89,2.89,0,0,1,1.487.344,2.645,2.645,0,0,1,.455.334,2.487,2.487,0,0,0-.283-.02,1.6,1.6,0,0,0-1.164.435A1.525,1.525,0,0,0,94.682,3.7a1.512,1.512,0,0,0,1.609,1.589,1.6,1.6,0,0,0,1.164-.435A1.563,1.563,0,0,0,97.9,3.7V3.551a2.257,2.257,0,0,0-.374-1.234,2.805,2.805,0,0,0-1.1-1,3.734,3.734,0,0,0-1.8-.395,4.706,4.706,0,0,0-2.459.658A6.723,6.723,0,0,0,90.24,3.338a11.273,11.273,0,0,0-1.407,2.469,17.178,17.178,0,0,0-.9,2.813l-.364,1.6H84.543v.607h2.884l-3.44,14.935c-.212.921-.445,1.761-.678,2.52a10.251,10.251,0,0,1-.81,1.963,3.863,3.863,0,0,1-1.062,1.275,2.369,2.369,0,0,1-1.427.445,3.061,3.061,0,0,1-1.538-.354,3.763,3.763,0,0,1-.486-.354,1.349,1.349,0,0,0,.283.03,1.657,1.657,0,0,0,.739-.182,1.624,1.624,0,0,0,.617-.526,1.462,1.462,0,0,0,.243-.86,1.4,1.4,0,0,0-.476-1.154,1.785,1.785,0,0,0-1.133-.385A1.583,1.583,0,0,0,76.64,29.9a2.257,2.257,0,0,0,.374,1.234,2.877,2.877,0,0,0,1.1,1,3.776,3.776,0,0,0,1.811.395,4.753,4.753,0,0,0,2.479-.658A6.6,6.6,0,0,0,84.32,30.1,11.5,11.5,0,0,0,85.7,27.624a19.565,19.565,0,0,0,.911-2.793l3.309-14,6.891.02-2.773,10.22c-.081.314-.152.617-.2.911a4.739,4.739,0,0,0-.081.7,1.94,1.94,0,0,0,.283,1.012,2.075,2.075,0,0,0,.89.789,3.491,3.491,0,0,0,1.568.3,4.13,4.13,0,0,0,2.226-.627,6.129,6.129,0,0,0,1.811-1.832,14.644,14.644,0,0,0,1.477-2.9l-.587-.182a17.732,17.732,0,0,1-1,2.054,8.329,8.329,0,0,1-1.1,1.5,4.251,4.251,0,0,1-1.2.911,2.891,2.891,0,0,1-1.275.314c-.637,0-.961-.192-.961-.577a1.862,1.862,0,0,1,.051-.415c.03-.132.061-.263.091-.374Z" transform="translate(0.911 0.011)" fill="#4d2f82"/>
</svg>
