<svg xmlns="http://www.w3.org/2000/svg" width="11.863" height="16.378" viewBox="0 0 11.863 16.378">
  <g id="pin" transform="translate(-336 -751)">
    <g id="maps-and-flags" transform="translate(264.427 751)">
      <path id="Path_34" data-name="Path 34" d="M76.5,0a5.938,5.938,0,0,0-5.931,5.931c0,4.059,5.308,10.017,5.534,10.269a.534.534,0,0,0,.795,0c.226-.252,5.534-6.21,5.534-10.269A5.938,5.938,0,0,0,76.5,0Zm0,8.916a2.984,2.984,0,1,1,2.984-2.984A2.988,2.988,0,0,1,76.5,8.916Z" transform="translate(1)" fill="#b92790"/>
    </g>
    <circle id="Ellipse_92" data-name="Ellipse 92" cx="3.75" cy="3.75" r="3.75" transform="translate(338.181 753)" fill="#fff"/>
  </g>
</svg>
