<?xml version="1.0" standalone="no"?>
<!DOCTYPE svg PUBLIC "-//W3C//DTD SVG 20010904//EN"
 "http://www.w3.org/TR/2001/REC-SVG-20010904/DTD/svg10.dtd">
<svg version="1.0" xmlns="http://www.w3.org/2000/svg"
 width="32.000000pt" height="32.000000pt" viewBox="0 0 32.000000 32.000000"
 preserveAspectRatio="xMidYMid meet">

<g transform="translate(0.000000,32.000000) scale(0.100000,-0.100000)"
fill="#BE1F93" stroke="none">
<path d="M130 268 c-11 -18 -20 -36 -20 -39 0 -4 -20 -10 -45 -13 -53 -8 -59
-29 -19 -67 22 -21 25 -30 20 -65 -7 -57 7 -68 55 -43 39 19 39 19 78 0 48
-25 62 -14 55 43 -5 35 -2 44 20 65 40 37 34 59 -17 66 -36 6 -46 12 -62 43
-27 48 -40 50 -65 10z m50 -28 c12 -29 17 -32 74 -45 l29 -6 -28 -29 c-24 -25
-27 -35 -22 -69 6 -45 0 -48 -43 -26 -27 14 -33 14 -60 0 -43 -22 -49 -19 -43
26 5 34 2 44 -22 69 -29 31 -31 29 36 44 17 4 31 17 39 36 16 38 24 38 40 0z"/>
</g>
</svg>
