<svg id="Group_3946" data-name="Group 3946" xmlns="http://www.w3.org/2000/svg" width="17" height="17" viewBox="0 0 17 17">
  <g id="Ellipse_308" data-name="Ellipse 308" fill="#fff" stroke="#4d2f82" stroke-width="1">
    <circle cx="8.5" cy="8.5" r="8.5" stroke="none"/>
    <circle cx="8.5" cy="8.5" r="8" fill="none"/>
  </g>
  <path id="Path_2071" data-name="Path 2071" d="M-1.694.07A.775.775,0,0,1-2.2-.1a.616.616,0,0,1-.2-.5V-6.286A.638.638,0,0,1-2.2-6.8a.755.755,0,0,1,.511-.175.728.728,0,0,1,.5.175.649.649,0,0,1,.2.511V-.6a.627.627,0,0,1-.2.5A.747.747,0,0,1-1.694.07Zm0-8.414a.9.9,0,0,1-.644-.224.77.77,0,0,1-.238-.588.748.748,0,0,1,.238-.581.919.919,0,0,1,.644-.217.925.925,0,0,1,.637.217.737.737,0,0,1,.245.581.77.77,0,0,1-.238.588A.9.9,0,0,1-1.694-8.344Z" transform="translate(10.194 13.442)" fill="#4d2f82"/>
</svg>
