<svg xmlns="http://www.w3.org/2000/svg" width="66.625" height="60.964" viewBox="0 0 66.625 60.964">
  <g id="Warning" transform="translate(-164 -386.894)">
    <path id="Path_1111" data-name="Path 1111" d="M34.155,20.931a11.592,11.592,0,0,1,20.1,0l21.7,37.78A11.592,11.592,0,0,1,65.909,76.077H22.5A11.592,11.592,0,0,1,12.451,58.71Z" transform="translate(153.106 371.781)" fill="#b92790"/>
    <path id="Polygon_2" data-name="Polygon 2" d="M36.573,14.315A5.461,5.461,0,0,0,33.917,15a5.315,5.315,0,0,0-2.045,2.05L11.722,52.423A5.317,5.317,0,0,0,11,55.2a5.508,5.508,0,0,0,2.649,4.558,5.317,5.317,0,0,0,2.772.75h40.3a5.317,5.317,0,0,0,2.772-.75A5.508,5.508,0,0,0,62.144,55.2a5.317,5.317,0,0,0-.72-2.779L41.273,17.048A5.315,5.315,0,0,0,39.228,15a5.461,5.461,0,0,0-2.656-.682m0-3.091a8.42,8.42,0,0,1,7.386,4.293L64.11,50.893A8.5,8.5,0,0,1,56.723,63.6h-40.3A8.5,8.5,0,0,1,9.036,50.893l20.15-35.375A8.42,8.42,0,0,1,36.573,11.224Z" transform="translate(160.728 380.307)" fill="#83188a"/>
    <path id="Path_1110" data-name="Path 1110" d="M-1.462-22.181A1.487,1.487,0,0,1-2.527-22.6a1.881,1.881,0,0,1-.522-1.211L-4.594-40.053l-.042-.418a2.589,2.589,0,0,1,.9-2.067,3.365,3.365,0,0,1,2.276-.772,3.261,3.261,0,0,1,2.38.9,2.747,2.747,0,0,1,.752,2.4L.124-23.81A1.881,1.881,0,0,1-.4-22.6,1.487,1.487,0,0,1-1.462-22.181Zm0,8.769a2.964,2.964,0,0,1-2.213-.9,3.07,3.07,0,0,1-.877-2.234,3.07,3.07,0,0,1,.877-2.234,2.964,2.964,0,0,1,2.213-.9,2.964,2.964,0,0,1,2.213.9,3.07,3.07,0,0,1,.877,2.234A3.07,3.07,0,0,1,.751-14.31,2.964,2.964,0,0,1-1.462-13.412Z" transform="translate(198.775 447.979)" fill="#fff"/>
  </g>
</svg>
