<svg xmlns="http://www.w3.org/2000/svg" width="71.161" height="62.208" viewBox="0 0 71.161 62.208">
  <g id="Group_6680" data-name="Group 6680" transform="translate(-0.5)">
    <circle id="Ellipse_294" data-name="Ellipse 294" cx="21.5" cy="21.5" r="21.5" transform="translate(14.58 11.208)" fill="#aebcde"/>
    <g id="Group_6682" data-name="Group 6682" transform="translate(0.5)">
      <g id="Group_6681" data-name="Group 6681" transform="translate(-5.145 -8.233)">
        <line id="Line_689" data-name="Line 689" y1="10.222" x2="10.222" transform="translate(30.504 45.431)" fill="none" stroke="#d00097" stroke-linecap="round" stroke-linejoin="round" stroke-width="2"/>
        <line id="Line_690" data-name="Line 690" x1="10.222" y1="10.222" transform="translate(40.726 45.431)" fill="none" stroke="#d00097" stroke-linecap="round" stroke-linejoin="round" stroke-width="2"/>
        <line id="Line_691" data-name="Line 691" y2="14.456" transform="translate(40.726 30.975)" fill="none" stroke="#d00097" stroke-linecap="round" stroke-linejoin="round" stroke-width="2"/>
      </g>
      <path id="Path_3577" data-name="Path 3577" d="M74.844,13.564A13.564,13.564,0,1,1,61.281,0,13.564,13.564,0,0,1,74.844,13.564" transform="translate(-25.701)" fill="#5f12a6"/>
      <path id="Path_3578" data-name="Path 3578" d="M76.5,15.484a3.666,3.666,0,1,1-3.666-3.666A3.666,3.666,0,0,1,76.5,15.484" transform="translate(-37.255 -6.365)" fill="#fff"/>
      <path id="Path_3579" data-name="Path 3579" d="M76.042,34.119A6.412,6.412,0,0,0,69,27.738a6.6,6.6,0,0,0-5.781,6.656,2.2,2.2,0,0,0,2.2,2.2h8.413a2.2,2.2,0,0,0,2.2-2.2Z" transform="translate(-34.051 -14.924)" fill="#fff"/>
      <path id="Path_3580" data-name="Path 3580" d="M27.127,89.595A13.564,13.564,0,1,1,13.564,76.031,13.564,13.564,0,0,1,27.127,89.595" transform="translate(0 -40.951)" fill="#5f12a6"/>
      <path id="Path_3581" data-name="Path 3581" d="M28.784,91.515a3.666,3.666,0,1,1-3.666-3.666,3.666,3.666,0,0,1,3.666,3.666" transform="translate(-11.554 -47.316)" fill="#fff"/>
      <path id="Path_3582" data-name="Path 3582" d="M28.324,110.15a6.412,6.412,0,0,0-7.04-6.381,6.6,6.6,0,0,0-5.781,6.656,2.2,2.2,0,0,0,2.2,2.2H26.12a2.2,2.2,0,0,0,2.2-2.2Z" transform="translate(-8.349 -55.874)" fill="#fff"/>
      <path id="Path_3583" data-name="Path 3583" d="M122.562,89.595A13.564,13.564,0,1,1,109,76.031a13.564,13.564,0,0,1,13.564,13.564" transform="translate(-51.402 -40.951)" fill="#5f12a6"/>
      <path id="Path_3584" data-name="Path 3584" d="M124.219,91.515a3.666,3.666,0,1,1-3.666-3.666,3.666,3.666,0,0,1,3.666,3.666" transform="translate(-62.956 -47.316)" fill="#fff"/>
      <path id="Path_3585" data-name="Path 3585" d="M123.759,110.15a6.412,6.412,0,0,0-7.04-6.381,6.6,6.6,0,0,0-5.781,6.656,2.2,2.2,0,0,0,2.2,2.2h8.413a2.2,2.2,0,0,0,2.2-2.2Z" transform="translate(-59.751 -55.874)" fill="#fff"/>
    </g>
  </g>
</svg>
