<svg xmlns="http://www.w3.org/2000/svg" xmlns:xlink="http://www.w3.org/1999/xlink" width="71.259" height="46.537" viewBox="0 0 71.259 46.537">
  <defs>
    <clipPath id="clip-path">
      <rect id="Rectangle_2608" data-name="Rectangle 2608" width="71.259" height="46.537" fill="none"/>
    </clipPath>
  </defs>
  <g id="Group_6684" data-name="Group 6684" transform="translate(0 0)">
    <g id="Group_6683" data-name="Group 6683" transform="translate(0 0)" clip-path="url(#clip-path)">
      <path id="Path_3586" data-name="Path 3586" d="M64.7,46.537H6.559A6.578,6.578,0,0,1,0,39.979V6.559A6.578,6.578,0,0,1,6.559,0H64.7a6.578,6.578,0,0,1,6.559,6.559v33.42A6.578,6.578,0,0,1,64.7,46.537" transform="translate(0 0)" fill="#5f12a6"/>
      <path id="Path_3587" data-name="Path 3587" d="M19.376,46.9,34.635,31.262l8.332,8.332L61.021,21.54" transform="translate(-8.493 -9.767)" fill="none" stroke="#d00097" stroke-linecap="round" stroke-linejoin="round" stroke-width="4"/>
      <line id="Line_692" data-name="Line 692" y2="29.949" transform="translate(9.752 8.294)" fill="none" stroke="#fff" stroke-linecap="round" stroke-linejoin="round" stroke-width="2"/>
      <line id="Line_693" data-name="Line 693" x2="51.756" transform="translate(9.752 38.243)" fill="none" stroke="#fff" stroke-linecap="round" stroke-linejoin="round" stroke-width="2"/>
      <path id="Path_3588" data-name="Path 3588" d="M85.767,21.54h5.651v5.651" transform="translate(-38.891 -9.767)" fill="none" stroke="#d00097" stroke-linecap="round" stroke-linejoin="round" stroke-width="4"/>
      <path id="Path_3589" data-name="Path 3589" d="M48.531,35.918a4.111,4.111,0,1,1-4.111-4.111,4.11,4.11,0,0,1,4.111,4.111" transform="translate(-18.278 -14.423)" fill="#fff"/>
    </g>
  </g>
</svg>
