<svg xmlns="http://www.w3.org/2000/svg" width="21.43" height="19.644" viewBox="0 0 21.43 19.644">
  <path id="folder" d="M16.965,2.786H11.136a.91.91,0,0,1-.4-.089L7.919,1.282A2.691,2.691,0,0,0,6.722,1H4.465A4.47,4.47,0,0,0,0,5.465V16.179a4.47,4.47,0,0,0,4.465,4.465h12.5a4.47,4.47,0,0,0,4.465-4.465V7.25a4.47,4.47,0,0,0-4.465-4.465Zm-12.5,0H6.722a.91.91,0,0,1,.4.089l2.818,1.41a2.691,2.691,0,0,0,1.2.287h5.829a2.679,2.679,0,0,1,2.481,1.68l-17.661.1V5.465A2.679,2.679,0,0,1,4.465,2.786Zm12.5,16.072H4.465a2.679,2.679,0,0,1-2.679-2.679V8.138l17.858-.1v8.142A2.679,2.679,0,0,1,16.965,18.858Z" transform="translate(0 -1)" fill="#fff"/>
</svg>
