<svg xmlns="http://www.w3.org/2000/svg" width="45" height="45" viewBox="0 0 45 45">
  <g id="Group_3888" data-name="Group 3888" transform="translate(-356 -807)">
    <circle id="Ellipse_297" data-name="Ellipse 297" cx="22.5" cy="22.5" r="22.5" transform="translate(356 807)" fill="#27a8b9"/>
    <g id="Complete" transform="translate(366.333 817.427)">
      <g id="Group_3752" data-name="Group 3752" transform="translate(0)">
        <g id="Path_1936" data-name="Path 1936" transform="translate(-653.89 -146.118)" fill="none" stroke-linejoin="round">
          <path d="M662.465,164.285a2.845,2.845,0,0,1-2.322.832l-6.253-.713v5.859h16.986a3.436,3.436,0,0,0,2.377-.931l4.657-4.213a1.1,1.1,0,0,0,.175-1.3.685.685,0,0,0-.916-.316.67.67,0,0,0-.088.05l-3.821,2.542a2.465,2.465,0,0,1-1.674.416l-3.368-.408a.743.743,0,0,1-.592-.765c0-.464.316-.815.676-.772l1.9.23a.911.911,0,0,0,.95-.683,1.176,1.176,0,0,0-.652-1.529l-.019-.007-3.307-.751a3.369,3.369,0,0,0-3.106.939Z" stroke="none"/>
          <path d="M 666.4705810546875 161.74560546875 C 665.5740356445312 161.7455902099609 664.7029418945312 162.1039276123047 664.0626831054688 162.7581787109375 L 662.4647827148438 164.2850646972656 C 661.857421875 164.9007568359375 661.003173828125 165.2067260742188 660.1431884765625 165.1166534423828 L 653.8900756835938 164.4037017822266 L 653.8900756835938 170.2626342773438 L 670.8762817382812 170.2626342773438 C 671.7588500976562 170.2688293457031 672.6099243164062 169.9353179931641 673.2534790039062 169.3312530517578 L 677.9102783203125 165.1184997558594 C 678.2505493164062 164.7699432373047 678.3209228515625 164.2394561767578 678.0850219726562 163.8136291503906 C 677.9194946289062 163.4735717773438 677.509521484375 163.3318023681641 677.1693725585938 163.4972534179688 C 677.1390380859375 163.5118560791016 677.1092529296875 163.5289154052734 677.081787109375 163.5477447509766 L 673.2603149414062 166.0894165039062 C 672.7705078125 166.4252319335938 672.1762084960938 166.572998046875 671.5859985351562 166.5055236816406 L 668.21826171875 166.0972900390625 C 667.859375 166.0237121582031 667.607666015625 165.6982421875 667.6263427734375 165.3320465087891 C 667.6263427734375 164.8685150146484 667.9413452148438 164.5167846679688 668.30224609375 164.5600128173828 L 670.197265625 164.7899932861328 C 670.63671875 164.822265625 671.0380249023438 164.5345001220703 671.1468505859375 164.1068267822266 C 671.3889770507812 163.5045928955078 671.0969848632812 162.819580078125 670.49462890625 162.5774383544922 L 670.475830078125 162.5701446533203 L 667.1689453125 161.81884765625 C 666.9368896484375 161.7696685791016 666.7028198242188 161.74560546875 666.4705810546875 161.74560546875 M 666.4705200195312 159.74560546875 C 666.84375 159.74560546875 667.21826171875 159.7848815917969 667.5836181640625 159.8623046875 C 667.5931396484375 159.8643188476562 667.6026000976562 159.8663940429688 667.612060546875 159.8685455322266 L 670.9189453125 160.6198425292969 C 671.0145263671875 160.6415557861328 671.1083984375 160.6702728271484 671.1997680664062 160.7057647705078 L 671.2185668945312 160.7130584716797 C 671.2258911132812 160.7159271240234 671.2332763671875 160.7188262939453 671.2406005859375 160.7217559814453 C 672.0276489257812 161.0381469726562 672.6444091796875 161.6421966552734 672.9771728515625 162.4226379394531 C 673.1529541015625 162.8349609375 673.2384033203125 163.2703857421875 673.233154296875 163.7055053710938 L 675.9666748046875 161.887451171875 C 676.0708618164062 161.817138671875 676.1815795898438 161.7534637451172 676.2960815429688 161.697998046875 C 676.6595458984375 161.5214538574219 677.0648803710938 161.4281463623047 677.4683227539062 161.4281463623047 C 678.4691772460938 161.4281463623047 679.4002075195312 161.9982757568359 679.85693359375 162.8856353759766 C 680.4991455078125 164.0859527587891 680.294677734375 165.5391082763672 679.3414306640625 166.5155944824219 C 679.3125 166.5451965332031 679.28271484375 166.5738983154297 679.2520141601562 166.6016540527344 L 674.607177734375 170.8035583496094 C 673.5970458984375 171.7446899414062 672.2821655273438 172.2627258300781 670.9022827148438 172.2627258300781 L 670.8762817382812 172.2626190185547 L 670.8762817382812 172.2626342773438 L 653.8900756835938 172.2626342773438 C 652.7855224609375 172.2626342773438 651.8900756835938 171.3672027587891 651.8900756835938 170.2626342773438 L 651.8900756835938 164.4037017822266 C 651.8900756835938 163.8338165283203 652.1331787109375 163.2909851074219 652.558349609375 162.9115295410156 C 652.9835815429688 162.5320739746094 653.5505981445312 162.3520660400391 654.1166381835938 162.4165649414062 L 660.3582153320312 163.1282043457031 C 660.6099853515625 163.1524353027344 660.8641357421875 163.0597076416016 661.0409545898438 162.8805541992188 C 661.0547485351562 162.8665161132812 661.06884765625 162.8526916503906 661.0830688476562 162.8390808105469 L 662.6595458984375 161.3327026367188 C 663.6611938476562 160.3235626220703 665.0479125976562 159.74560546875 666.4705200195312 159.74560546875 Z" stroke="none" fill="#fff"/>
        </g>
        <line id="Line_483" data-name="Line 483" y2="13.071" transform="translate(3.042 5.475)" fill="none" stroke="#fff" stroke-linejoin="round" stroke-width="2"/>
        <line id="Line_484" data-name="Line 484" y1="12.214" transform="translate(21.29 5.475)" fill="none" stroke="#fff" stroke-linejoin="round" stroke-width="2"/>
        <path id="Path_2003" data-name="Path 2003" d="M664.19,138.056h-5.779a1.521,1.521,0,0,0-1.521,1.521v2.737h20.684v-2.737a1.522,1.522,0,0,0-1.521-1.521h-5.779" transform="translate(-655.065 -136.839)" fill="none" stroke="#fff" stroke-linejoin="round" stroke-width="2"/>
        <path id="Path_2004" data-name="Path 2004" d="M668.89,152.558V136.91a.885.885,0,0,1,.912-.854h4.258a.885.885,0,0,1,.913.854v14.243" transform="translate(-659.765 -136.056)" fill="none" stroke="#fff" stroke-linejoin="round" stroke-width="2"/>
      </g>
    </g>
  </g>
</svg>
