<svg xmlns="http://www.w3.org/2000/svg" width="27.011" height="24.031" viewBox="0 0 27.011 24.031">
  <g id="cs" transform="translate(0.03 0.03)">
    <path id="Path_3441" data-name="Path 3441" d="M16.6,22.393a8.137,8.137,0,0,0,6.76-3.707" transform="translate(-0.659 -0.701)" fill="none" stroke="#be1f93" stroke-linecap="round" stroke-linejoin="round" stroke-width="1.5"/>
    <path id="Path_3442" data-name="Path 3442" d="M16.246,22.493a2.309,2.309,0,1,1-2.31-2.31,2.31,2.31,0,0,1,2.31,2.31" transform="translate(-0.461 -0.801)" fill="#be1f93"/>
    <path id="Path_3443" data-name="Path 3443" d="M5.7,10.333V8.753a8,8,0,0,1,16.006,0v1.58" transform="translate(-0.226 -0.03)" fill="none" stroke="#be1f93" stroke-linecap="round" stroke-linejoin="round" stroke-width="1.5"/>
    <path id="Path_3444" data-name="Path 3444" d="M2.942,18.321H5.5V10.73H2.942A2.2,2.2,0,0,0,.75,12.921v3.207a2.2,2.2,0,0,0,2.192,2.192" transform="translate(-0.03 -0.426)" fill="#fff" stroke="#be1f93" stroke-width="1"/>
    <path id="Path_3445" data-name="Path 3445" d="M2.942,18.321H5.5V10.73H2.942A2.2,2.2,0,0,0,.75,12.921v3.207A2.2,2.2,0,0,0,2.942,18.321Z" transform="translate(-0.03 -0.426)" fill="none" stroke="#be1f93" stroke-linecap="round" stroke-linejoin="round" stroke-width="1.5"/>
    <path id="Path_3446" data-name="Path 3446" d="M24.926,18.321h-2.56V10.73h2.56a2.2,2.2,0,0,1,2.192,2.191v3.207a2.2,2.2,0,0,1-2.192,2.192" transform="translate(-0.888 -0.426)" fill="none" stroke="#be1f93" stroke-width="1"/>
    <path id="Path_3447" data-name="Path 3447" d="M24.926,18.321h-2.56V10.73h2.56a2.2,2.2,0,0,1,2.192,2.191v3.207A2.2,2.2,0,0,1,24.926,18.321Z" transform="translate(-0.888 -0.426)" fill="none" stroke="#be1f93" stroke-linecap="round" stroke-linejoin="round" stroke-width="1.5"/>
  </g>
</svg>
