<svg xmlns="http://www.w3.org/2000/svg" width="45" height="45" viewBox="0 0 45 45">
  <g id="Group_3856" data-name="Group 3856" transform="translate(-356 -807)">
    <circle id="Ellipse_297" data-name="Ellipse 297" cx="22.5" cy="22.5" r="22.5" transform="translate(356 807)" fill="#b92790"/>
    <g id="_001-coupon" data-name="001-coupon" transform="translate(364.723 819.167)">
      <path id="Path_1673" data-name="Path 1673" d="M24.97,80.076H2.583A2.586,2.586,0,0,1,0,77.493V73.188a.861.861,0,0,1,.861-.861,2.583,2.583,0,0,0,0-5.166A.86.86,0,0,1,0,66.3V61.994a2.586,2.586,0,0,1,2.583-2.583H24.97a2.586,2.586,0,0,1,2.583,2.583V66.3a.861.861,0,0,1-.861.861,2.583,2.583,0,1,0,0,5.166.861.861,0,0,1,.861.861v4.305A2.586,2.586,0,0,1,24.97,80.076ZM1.722,73.962v3.531a.862.862,0,0,0,.861.861H24.97a.862.862,0,0,0,.861-.861V73.962a4.306,4.306,0,0,1,0-8.437V61.994a.862.862,0,0,0-.861-.861H2.583a.862.862,0,0,0-.861.861v3.531a4.306,4.306,0,0,1,0,8.437Z" transform="translate(0 -59.411)" fill="#fff"/>
      <path id="Path_1674" data-name="Path 1674" d="M0,0H14.714V1.723H0Z" transform="translate(10.388 16.907) rotate(-69.444)" fill="#fff"/>
      <path id="path-1_20_" d="M121.406,153.7a2.583,2.583,0,1,1,2.583-2.583A2.586,2.586,0,0,1,121.406,153.7Zm0-3.444a.861.861,0,1,0,.861.861A.862.862,0,0,0,121.406,150.251Z" transform="translate(-111.703 -143.073)" fill="#fff"/>
      <path id="path-1_19_" d="M269.935,242.812a2.583,2.583,0,1,1,2.583-2.583A2.586,2.586,0,0,1,269.935,242.812Zm0-3.444a.861.861,0,1,0,.861.861A.862.862,0,0,0,269.935,239.368Z" transform="translate(-251.331 -226.85)" fill="#fff"/>
    </g>
  </g>
</svg>
