<svg xmlns="http://www.w3.org/2000/svg" width="45" height="45" viewBox="0 0 45 45">
  <g id="Group_3890" data-name="Group 3890" transform="translate(-356 -807)">
    <circle id="Ellipse_297" data-name="Ellipse 297" cx="22.5" cy="22.5" r="22.5" transform="translate(356 807)" fill="#5f27b9"/>
    <g id="_001-coupon" data-name="001-coupon" transform="translate(368.091 818.862)">
      <path id="Path_1674" data-name="Path 1674" d="M0,0H21.775V2.549H0Z" transform="translate(4.836 20.381) rotate(-69.444)" fill="#fff"/>
      <path id="path-1_20_" d="M122.646,156.175a3.823,3.823,0,1,1,3.823-3.823A3.827,3.827,0,0,1,122.646,156.175Zm0-5.1a1.274,1.274,0,1,0,1.274,1.274A1.275,1.275,0,0,0,122.646,151.078Z" transform="translate(-118.823 -145.094)" fill="#fff"/>
      <path id="path-1_19_" d="M271.175,245.292A3.823,3.823,0,1,1,275,241.469,3.827,3.827,0,0,1,271.175,245.292Zm0-5.1a1.274,1.274,0,1,0,1.274,1.274A1.275,1.275,0,0,0,271.175,240.195Z" transform="translate(-254.18 -226.308)" fill="#fff"/>
    </g>
  </g>
</svg>
