<svg xmlns="http://www.w3.org/2000/svg" width="9.435" height="11.687" viewBox="0 0 9.435 11.687">
  <g id="product" transform="translate(-253.832 -423.25)">
    <path id="Path_1765" data-name="Path 1765" d="M212.437,6.7a1.037,1.037,0,0,0-1.035-.981H205.7a1.037,1.037,0,0,0-1.035.981l-.328,6.036a1.037,1.037,0,0,0,1.035,1.093h6.361a1.037,1.037,0,0,0,1.035-1.093Z" transform="translate(50 420.606)" fill="none" stroke="#fff" stroke-width="1"/>
    <path id="Path_1766" data-name="Path 1766" d="M208.967,3.328V2.565a1.815,1.815,0,1,1,3.629,0v.764" transform="translate(47.768 423)" fill="none" stroke="#fff" stroke-linecap="round" stroke-linejoin="round" stroke-width="1"/>
    <path id="Path_1767" data-name="Path 1767" d="M212.6,8.69a1.815,1.815,0,1,1-3.629,0" transform="translate(47.768 419.177)" fill="none" stroke="#fff" stroke-linecap="round" stroke-linejoin="round" stroke-width="1"/>
  </g>
</svg>
