<svg xmlns="http://www.w3.org/2000/svg" width="21.533" height="21.5" viewBox="0 0 21.533 21.5">
  <g id="re" transform="translate(0.033)">
    <path id="Path_3449" data-name="Path 3449" d="M.75,11.61a10.708,10.708,0,0,0,.586,3.07,10.266,10.266,0,0,0,2.489,3.98,9.7,9.7,0,0,0,13.817,0,10.266,10.266,0,0,0,2.489-3.98" transform="translate(0 -0.8)" fill="none" stroke="#be1f93" stroke-linecap="round" stroke-linejoin="round" stroke-width="1.5"/>
    <path id="Path_3450" data-name="Path 3450" d="M1.35,7.63A10.047,10.047,0,0,1,10.757.75a10.047,10.047,0,0,1,9.407,6.88,10.881,10.881,0,0,1,.586,3.52c0,.16,0,.31-.01.46" transform="translate(0)" fill="none" stroke="#be1f93" stroke-linecap="round" stroke-linejoin="round" stroke-width="1.5"/>
    <path id="Path_3451" data-name="Path 3451" d="M14.332,14.68H20.92v6.588" transform="translate(-0.79 -0.8)" fill="none" stroke="#be1f93" stroke-linecap="round" stroke-linejoin="round" stroke-width="1.5"/>
    <path id="Path_3452" data-name="Path 3452" d="M7.938,7.63H1.35V1.042" fill="none" stroke="#be1f93" stroke-linecap="round" stroke-linejoin="round" stroke-width="1.5"/>
  </g>
</svg>
