<?xml version="1.0" standalone="no"?>
<!DOCTYPE svg PUBLIC "-//W3C//DTD SVG 20010904//EN"
 "http://www.w3.org/TR/2001/REC-SVG-20010904/DTD/svg10.dtd">
<svg version="1.0" xmlns="http://www.w3.org/2000/svg"
 width="30" height="30" viewBox="0 0 256.000000 256.000000"
 preserveAspectRatio="xMidYMid meet">

<g transform="translate(0.000000,256.000000) scale(0.100000,-0.100000)"
fill="#8c98a2" stroke="none">
<path d="M1140 2554 c-561 -72 -997 -471 -1116 -1024 -26 -119 -26 -381 0
-500 111 -514 492 -895 1006 -1006 118 -25 381 -26 498 0 517 111 897 491
1008 1006 26 119 26 381 0 500 -110 508 -483 887 -986 1001 -83 19 -331 33
-410 23z m413 -208 c385 -100 690 -404 794 -794 24 -87 27 -115 27 -272 0
-157 -3 -185 -27 -272 -104 -388 -406 -691 -792 -795 -90 -24 -117 -27 -275
-27 -157 0 -185 3 -272 27 -389 104 -691 405 -795 794 -24 88 -27 115 -27 273
0 158 3 185 27 273 30 111 95 255 157 348 54 80 205 232 285 286 127 86 281
149 432 178 121 23 341 14 466 -19z"/>
<path d="M1139 1907 c-175 -50 -271 -224 -160 -290 55 -32 86 -22 135 45 15
20 42 43 61 52 72 34 198 6 223 -50 31 -66 0 -126 -109 -217 -94 -79 -130
-142 -137 -238 -8 -120 10 -149 94 -149 72 0 94 21 94 90 0 78 22 115 129 219
112 110 143 163 149 258 5 80 -11 126 -65 184 -67 71 -143 102 -268 106 -61 2
-118 -2 -146 -10z"/>
<path d="M1195 930 c-30 -12 -64 -53 -74 -88 -19 -64 29 -141 97 -159 40 -10
103 17 129 56 69 103 -38 238 -152 191z"/>
</g>
</svg>
