<?xml version="1.0" encoding="UTF-8"?><svg id="Layer_2" xmlns="http://www.w3.org/2000/svg" viewBox="0 0 108.5 108.5"><defs><style>.cls-1{fill:#f7c537;}.cls-2{fill:none;stroke:#fff;stroke-linecap:round;stroke-linejoin:round;stroke-width:3px;}</style></defs><g id="Layer_1-2"><g><circle class="cls-1" cx="54.25" cy="54.25" r="54.25"/><g><circle class="cls-2" cx="54.25" cy="54.25" r="21.29"/><path class="cls-2" d="m70.2,26.52h0c6.16-3.26,13.01,3.01,10.29,9.43h0c-1.71,4.04.45,8.68,4.65,9.97h0c6.66,2.05,7.07,11.33.61,13.95h0c-4.07,1.65-5.82,6.45-3.76,10.33h0c3.26,6.16-3.01,13.01-9.43,10.29h0c-4.04-1.71-8.68.45-9.97,4.65h0c-2.05,6.66-11.33,7.07-13.95.61h0c-1.65-4.07-6.45-5.82-10.33-3.76h0c-6.16,3.26-13.01-3.01-10.29-9.43h0c1.71-4.04-.45-8.68-4.65-9.97h0c-6.66-2.05-7.07-11.33-.61-13.95h0c4.07-1.65,5.82-6.45,3.76-10.33h0c-3.26-6.16,3.01-13.01,9.43-10.29h0c4.04,1.71,8.68-.45,9.97-4.65h0c2.05-6.66,11.33-7.07,13.95-.61h0c1.65,4.07,6.45,5.82,10.33,3.76Z"/><polyline class="cls-2" points="44.25 52.21 52.28 60.24 64.25 48.26"/></g></g></g></svg>