<?xml version="1.0" encoding="UTF-8"?><svg id="Layer_2" xmlns="http://www.w3.org/2000/svg" viewBox="0 0 108.5 108.5"><defs><style>.cls-1{fill:none;stroke:#b1bcda;stroke-linecap:round;stroke-linejoin:round;stroke-width:3px;}.cls-2{fill:#f3f4fa;}</style></defs><g id="Layer_1-2"><g><circle class="cls-2" cx="54.25" cy="54.25" r="54.25"/><g><path class="cls-1" d="m39.32,65.37l13.67,6.14c2.19.49,4.47.23,5.6-2.8.45-1.22.38-2.31.1-3.23-.47-1.49-1.64-2.67-3.07-3.3l-18.5-8.13c-1.57-.69-3.29-.96-5-.79l-6.19.62c-1.92.19-3.38,1.8-3.38,3.73v13.45c0,2.07,1.68,3.75,3.75,3.75h0c.95,0,1.89.21,2.75.61l12.68,5.92c3.28,1.53,6.94,2.12,10.51,1.54,2.35-.39,5.06-1.22,7.77-2.88l23.74-12.52s4.14-2.65,1.11-6.86c-1.92-2.67-6.06-1.01-6.06-1.01l-21.17,10.79"/><polyline class="cls-1" points="34.66 53.32 34.66 25.42 79.69 25.42 79.69 59.33"/><polygon class="cls-1" points="63.73 35.35 57.18 31.83 50.62 35.35 50.62 25.41 63.73 25.41 63.73 35.35"/></g></g></g></svg>