<?xml version="1.0" encoding="UTF-8"?><svg id="Layer_2" xmlns="http://www.w3.org/2000/svg" viewBox="0 0 108.5 108.5"><defs><style>.cls-1{fill:#296db7;}.cls-2{stroke-dasharray:0 0 6.21 6.21;}.cls-2,.cls-3{fill:none;stroke:#fff;stroke-linecap:round;stroke-linejoin:round;stroke-width:3px;}</style></defs><g id="Layer_1-2"><g><circle class="cls-1" cx="54.25" cy="54.25" r="54.25"/><g><g><path class="cls-3" d="m24,39.83c-.5,1.05-.95,2.13-1.34,3.23"/><path class="cls-2" d="m21.14,49.07c-.26,1.69-.4,3.42-.4,5.18,0,14.62,9.37,27.06,22.43,31.63"/><path class="cls-3" d="m46.16,86.77c1.12.28,2.27.5,3.44.66"/></g><path class="cls-3" d="m54.25,87.76c18.5,0,33.5-15,33.5-33.5s-15-33.5-33.5-33.5c-6.89,0-13.29,2.08-18.62,5.64"/><polyline class="cls-3" points="38.75 30.9 27.66 31.8 32.42 21.74"/><g><polygon class="cls-3" points="54.25 71.34 35.73 62.05 35.73 46.23 54.25 55.53 54.25 71.34"/><polygon class="cls-3" points="54.25 71.34 72.77 62.05 72.77 46.23 54.25 55.53 54.25 71.34"/><polygon class="cls-3" points="54.25 55.53 35.73 46.23 54.25 37.16 72.77 46.23 54.25 55.53"/></g></g></g></g></svg>